<svg enable-background="new 0 0 512 512" height="300" viewBox="0 0 512 512" width="300" xmlns="http://www.w3.org/2000/svg" version="1.1" xmlns:xlink="http://www.w3.org/1999/xlink" xmlns:svgjs="http://svgjs.dev/svgjs"><g width="100%" height="100%" transform="matrix(1,0,0,1,0,0)"><g id="_x32_7_x2C__Elevator_x2C__lift_x2C__tranportation_x2C__electronics_x2C__arrow"><g id="XMLID_844_"><g id="XMLID_845_"><g id="XMLID_846_"><path id="XMLID_847_" d="m443.5 121c-4.143 0-7.5-3.357-7.5-7.5v-55c0-23.435-19.065-42.5-42.5-42.5h-275c-23.435 0-42.5 19.065-42.5 42.5v55c0 4.143-3.357 7.5-7.5 7.5s-7.5-3.357-7.5-7.5v-55c0-31.706 25.794-57.5 57.5-57.5h275c31.706 0 57.5 25.794 57.5 57.5v55c0 4.143-3.357 7.5-7.5 7.5z" fill="#efb13b" fill-opacity="1" data-original-color="#000000ff" stroke="none" stroke-opacity="1"/></g><g id="XMLID_848_"><path id="XMLID_849_" d="m443.5 406c-4.143 0-7.5-3.357-7.5-7.5v-120c0-4.143 3.357-7.5 7.5-7.5s7.5 3.357 7.5 7.5v120c0 4.143-3.357 7.5-7.5 7.5z" fill="#efb13b" fill-opacity="1" data-original-color="#000000ff" stroke="none" stroke-opacity="1"/></g><g id="XMLID_850_"><path id="XMLID_851_" d="m443.5 256c-4.143 0-7.5-3.357-7.5-7.5v-127.5h-63.17c-4.143 0-7.5-3.357-7.5-7.5s3.357-7.5 7.5-7.5h70.67c4.143 0 7.5 3.357 7.5 7.5v135c0 4.143-3.357 7.5-7.5 7.5z" fill="#efb13b" fill-opacity="1" data-original-color="#000000ff" stroke="none" stroke-opacity="1"/></g><g id="XMLID_852_"><path id="XMLID_853_" d="m383.5 511h-255c-36.704 0-67.5-29.476-67.5-67.5v-330c0-4.143 3.357-7.5 7.5-7.5h244.33c4.143 0 7.5 3.357 7.5 7.5s-3.357 7.5-7.5 7.5h-236.83v322.5c0 29.538 23.907 52.5 52.5 52.5h255c28.948 0 52.5-23.552 52.5-52.5v-15c0-4.143 3.357-7.5 7.5-7.5s7.5 3.357 7.5 7.5v15c0 37.22-30.28 67.5-67.5 67.5z" fill="#efb13b" fill-opacity="1" data-original-color="#000000ff" stroke="none" stroke-opacity="1"/></g><g id="XMLID_854_"><path id="XMLID_855_" d="m338.5 511c-4.143 0-7.5-3.357-7.5-7.5v-75c0-4.143 3.357-7.5 7.5-7.5s7.5 3.357 7.5 7.5v75c0 4.143-3.357 7.5-7.5 7.5z" fill="#efb13b" fill-opacity="1" data-original-color="#000000ff" stroke="none" stroke-opacity="1"/></g><g id="XMLID_856_"><path id="XMLID_857_" d="m338.5 406c-4.143 0-7.5-3.357-7.5-7.5v-120c0-4.143 3.357-7.5 7.5-7.5s7.5 3.357 7.5 7.5v120c0 4.143-3.357 7.5-7.5 7.5z" fill="#efb13b" fill-opacity="1" data-original-color="#000000ff" stroke="none" stroke-opacity="1"/></g><g id="XMLID_858_"><path id="XMLID_859_" d="m106 338.5c-4.143 0-7.5-3.357-7.5-7.5v-112.5c0-37.22 30.28-67.5 67.5-67.5h112.5c37.22 0 67.5 30.28 67.5 67.5v30c0 4.143-3.357 7.5-7.5 7.5s-7.5-3.357-7.5-7.5v-30c0-28.948-23.552-52.5-52.5-52.5h-112.5c-28.948 0-52.5 23.552-52.5 52.5v112.5c0 4.143-3.357 7.5-7.5 7.5z" fill="#efb13b" fill-opacity="1" data-original-color="#000000ff" stroke="none" stroke-opacity="1"/></g><g id="XMLID_860_"><path id="XMLID_861_" d="m106 506.63c-4.143 0-7.5-3.357-7.5-7.5v-108.13c0-4.143 3.357-7.5 7.5-7.5s7.5 3.357 7.5 7.5v108.13c0 4.142-3.357 7.5-7.5 7.5z" fill="#efb13b" fill-opacity="1" data-original-color="#000000ff" stroke="none" stroke-opacity="1"/></g><g id="XMLID_862_"><path id="XMLID_863_" d="m222.25 511c-4.143 0-7.5-3.357-7.5-7.5v-345c0-4.143 3.357-7.5 7.5-7.5s7.5 3.357 7.5 7.5v345c0 4.143-3.357 7.5-7.5 7.5z" fill="#efb13b" fill-opacity="1" data-original-color="#000000ff" stroke="none" stroke-opacity="1"/></g><g id="XMLID_864_"><path id="XMLID_865_" d="m443.5 286h-105c-4.143 0-7.5-3.357-7.5-7.5v-30c0-4.143 3.357-7.5 7.5-7.5h105c4.143 0 7.5 3.357 7.5 7.5v30c0 4.143-3.357 7.5-7.5 7.5zm-97.5-15h90v-15h-90z" fill="#efb13b" fill-opacity="1" data-original-color="#000000ff" stroke="none" stroke-opacity="1"/></g><g id="XMLID_868_"><path id="XMLID_869_" d="m443.5 436h-105c-4.143 0-7.5-3.357-7.5-7.5v-30c0-4.143 3.357-7.5 7.5-7.5h105c4.143 0 7.5 3.357 7.5 7.5v30c0 4.143-3.357 7.5-7.5 7.5zm-97.5-15h90v-15h-90z" fill="#efb13b" fill-opacity="1" data-original-color="#000000ff" stroke="none" stroke-opacity="1"/></g><g id="XMLID_872_"><path id="XMLID_873_" d="m385.696 373.804-15-15c-2.929-2.93-2.929-7.678 0-10.607 2.93-2.928 7.678-2.928 10.607 0l9.696 9.697 9.696-9.697c2.93-2.928 7.678-2.928 10.607 0 2.929 2.93 2.929 7.678 0 10.607l-15 15c-2.929 2.929-7.676 2.928-10.606 0z" fill="#efb13b" fill-opacity="1" data-original-color="#000000ff" stroke="none" stroke-opacity="1"/></g><g id="XMLID_874_"><path id="XMLID_875_" d="m400.696 328.804-9.696-9.698-9.696 9.697c-2.93 2.928-7.678 2.928-10.607 0-2.929-2.93-2.929-7.678 0-10.607l15-15c2.93-2.928 7.678-2.928 10.607 0l15 15c2.929 2.93 2.929 7.678 0 10.607-2.931 2.93-7.678 2.929-10.608.001z" fill="#efb13b" fill-opacity="1" data-original-color="#000000ff" stroke="none" stroke-opacity="1"/></g><circle id="XMLID_2694_" cx="342.833" cy="113.5" r="7.5" fill="#efb13b" fill-opacity="1" data-original-color="#000000ff" stroke="none" stroke-opacity="1"/><circle id="XMLID_2693_" cx="106" cy="361" r="7.5" fill="#efb13b" fill-opacity="1" data-original-color="#000000ff" stroke="none" stroke-opacity="1"/></g></g></g></g></svg>