<svg id="Capa_1" enable-background="new 0 0 512 512" height="300" viewBox="0 0 512 512" width="300" xmlns="http://www.w3.org/2000/svg" version="1.1" xmlns:xlink="http://www.w3.org/1999/xlink" xmlns:svgjs="http://svgjs.dev/svgjs"><g width="100%" height="100%" transform="matrix(1,0,0,1,0,0)"><g><path d="m173.126 100.98 26.761-26.761 26.761 26.761c1.464 1.464 3.384 2.197 5.303 2.197s3.839-.732 5.303-2.197c2.929-2.929 2.929-7.678 0-10.606l-32.064-32.064c-2.929-2.929-7.678-2.929-10.606 0l-32.064 32.064c-2.929 2.929-2.929 7.678 0 10.606 2.928 2.929 7.677 2.929 10.606 0z" fill="#efb13b" fill-opacity="1" data-original-color="#000000ff" stroke="none" stroke-opacity="1"/><path d="m306.81 100.98c1.406 1.407 3.314 2.197 5.303 2.197s3.897-.79 5.303-2.197l32.064-32.064c2.929-2.929 2.929-7.678 0-10.606-2.929-2.929-7.678-2.929-10.606 0l-26.761 26.761-26.76-26.761c-2.928-2.929-7.677-2.929-10.606 0s-2.929 7.678 0 10.606z" fill="#efb13b" fill-opacity="1" data-original-color="#000000ff" stroke="none" stroke-opacity="1"/><path d="m143.774 367.709h224.451c4.142 0 7.5-3.358 7.5-7.5s-3.358-7.5-7.5-7.5h-224.451c-4.142 0-7.5 3.358-7.5 7.5s3.358 7.5 7.5 7.5z" fill="#efb13b" fill-opacity="1" data-original-color="#000000ff" stroke="none" stroke-opacity="1"/><path d="m488.468 416.839h-16.548v-401.323c-.001-8.556-6.961-15.516-15.517-15.516h-16.032c-8.556 0-15.516 6.96-15.516 15.516v352.709c0 4.142 3.358 7.5 7.5 7.5s7.5-3.358 7.5-7.5v-352.709c0-.285.231-.516.516-.516h16.032c.285 0 .516.231.516.516v480.968c0 .285-.231.516-.516.516h-16.032c-.285 0-.516-.231-.516-.516v-96.193c0-4.142-3.358-7.5-7.5-7.5s-7.5 3.358-7.5 7.5v16.548h-17.064v-120.758c0-16.609-10.292-30.85-24.829-36.707l-11.531-57.657c-2.939-14.695-15.95-25.361-30.936-25.361h-168.99c-14.986 0-27.997 10.666-30.936 25.361l-11.531 57.657c-14.537 5.857-24.829 20.099-24.829 36.707v120.758h-17.064v-401.323c0-8.556-6.96-15.516-15.516-15.516h-16.032c-8.556 0-15.516 6.96-15.516 15.516v401.323h-16.549c-8.556 0-15.516 6.96-15.516 15.516v16.032c0 8.556 6.96 15.516 15.516 15.516h16.548v32.581c0 8.556 6.96 15.516 15.516 15.516h16.032c8.556 0 15.516-6.96 15.516-15.516v-32.581h337.71v32.581c0 8.556 6.96 15.516 15.516 15.516h16.032c8.556 0 15.516-6.96 15.516-15.516v-32.581h16.548c8.556 0 15.516-6.96 15.516-15.516v-16.032c.002-8.556-6.959-15.516-15.514-15.516zm-128.775 0v-17.064h24.565c3.009 0 5.885-.574 8.532-1.608v18.672zm-192.386 0v-17.064h177.387v17.064zm9.048-113.258v17.064h-57.146v-17.064zm144.29 0v17.064h-129.29v-17.064zm72.146 0v17.064h-57.146v-17.064zm-273.582 32.064h273.581v40.597c0 4.705-3.828 8.533-8.532 8.533h-256.516c-4.705 0-8.532-3.828-8.532-8.533v-40.597zm24.565-64.129h16.032c4.142 0 7.5-3.358 7.5-7.5s-3.358-7.5-7.5-7.5h-14.9l10.371-51.858c1.542-7.708 8.366-13.303 16.227-13.303h168.989c7.861 0 14.686 5.595 16.227 13.303l10.371 51.858h-175.22c-4.142 0-7.5 3.358-7.5 7.5s3.358 7.5 7.5 7.5h176.354c10.93 0 20.212 7.177 23.39 17.064h-271.23c3.178-9.887 12.46-17.064 23.389-17.064zm-24.565 126.651c2.647 1.034 5.523 1.608 8.532 1.608h24.565v17.064h-33.097zm-95.677 50.736c-.285 0-.516-.231-.516-.516v-16.032c0-.285.231-.516.516-.516h16.548v17.064zm48.613 47.581c0 .285-.231.516-.516.516h-16.032c-.285 0-.516-.231-.516-.516v-480.968c0-.285.231-.516.516-.516h16.032c.285 0 .516.231.516.516zm15-47.581v-17.064h337.71v17.064zm401.839-.516c0 .285-.231.516-.516.516h-16.548v-17.064h16.548c.285 0 .516.231.516.516z" fill="#efb13b" fill-opacity="1" data-original-color="#000000ff" stroke="none" stroke-opacity="1"/></g></g></svg>