<svg height="300" viewBox="-32 -21 682 682.66669" width="300" xmlns="http://www.w3.org/2000/svg" version="1.1" xmlns:xlink="http://www.w3.org/1999/xlink" xmlns:svgjs="http://svgjs.dev/svgjs"><g width="100%" height="100%" transform="matrix(1,0,0,1,0,0)"><path d="m191.585938 0c-11.78125 0-21.332032 9.550781-21.332032 21.332031v597.335938c0 11.78125 9.550782 21.332031 21.332032 21.332031h405.332031c11.78125 0 21.332031-9.550781 21.332031-21.332031v-597.335938c0-11.78125-9.550781-21.332031-21.332031-21.332031zm42.664062 618.667969v-416.003907h32v416.003907zm266.667969-224h-21.335938v-114.820313l21.335938-42.664062zm-42.667969 0h-127.996094v-106.667969h127.996094zm-149.335938 0h-21.332031v-157.484375l21.332031 42.664062zm-21.332031 21.332031h21.332031v125.484375l-21.332031 42.664063zm42.671875 0h127.996094v117.335938h-127.996094zm149.328125 0h21.335938v168.148438l-21.335938-42.664063zm-17.257812-149.335938h-136.148438l-32.003906-64h200.152344zm-168.152344 352.003907 32.003906-64h136.148438l32 64zm228.078125 0v-416.003907h32v416.003907zm53.335938 0v-416.003907c0-11.78125-9.550782-21.332031-21.335938-21.332031h-320c-11.78125 0-21.332031 9.550781-21.332031 21.332031v416.003907h-21.332031v-597.335938h405.332031v597.335938zm0 0" fill="#efb13b" fill-opacity="1" data-original-color="#000000ff" stroke="none" stroke-opacity="1"/><path d="m447.582031 64c0-5.890625-4.777343-10.664062-10.664062-10.664062h-85.332031c-5.894532 0-10.667969 4.773437-10.667969 10.664062s4.773437 10.667969 10.667969 10.667969h85.332031c5.886719 0 10.664062-4.777344 10.664062-10.667969zm0 0" fill="#efb13b" fill-opacity="1" data-original-color="#000000ff" stroke="none" stroke-opacity="1"/><path d="m31.585938 202.664062c-17.675782 0-32.003907 14.328126-32.003907 32.003907v170.664062c0 17.675781 14.328125 32.003907 32.003907 32.003907h85.332031c17.671875 0 31.996093-14.328126 31.996093-32.003907v-170.664062c0-17.675781-14.324218-32.003907-31.996093-32.003907zm95.996093 32.003907v170.664062c0 5.894531-4.777343 10.667969-10.664062 10.667969h-85.332031c-5.894532 0-10.667969-4.773438-10.667969-10.667969v-170.664062c0-5.894531 4.773437-10.667969 10.667969-10.667969h85.332031c5.886719 0 10.664062 4.773438 10.664062 10.667969zm0 0" fill="#efb13b" fill-opacity="1" data-original-color="#000000ff" stroke="none" stroke-opacity="1"/><path d="m333.378906 109.789062-24.464844 24.464844-24.457031-24.464844c-4.183593-4.039062-10.835937-3.984374-14.953125.132813-4.113281 4.117187-4.167968 10.765625-.128906 14.953125l32 32c4.164062 4.164062 10.917969 4.164062 15.082031 0l32.003907-32c4.039062-4.1875 3.984374-10.835938-.132813-14.953125s-10.765625-4.171875-14.949219-.132813zm0 0" fill="#efb13b" fill-opacity="1" data-original-color="#000000ff" stroke="none" stroke-opacity="1"/><path d="m487.121094 109.789062c-4.164063-4.160156-10.910156-4.160156-15.078125 0l-32 32.003907c-4.042969 4.183593-3.984375 10.839843.132812 14.949219 4.109375 4.117187 10.765625 4.175781 14.949219.132812l24.457031-24.457031 24.460938 24.457031c4.183593 4.042969 10.839843 3.984375 14.949219-.132812 4.117187-4.109376 4.175781-10.765626.132812-14.949219zm0 0" fill="#efb13b" fill-opacity="1" data-original-color="#000000ff" stroke="none" stroke-opacity="1"/><path d="m81.789062 248.457031c-4.164062-4.160156-10.917968-4.160156-15.082031 0l-21.332031 21.332031c-4.042969 4.191407-3.984375 10.839844.132812 14.957032 4.109376 4.113281 10.765626 4.167968 14.949219.128906l13.792969-13.789062 13.789062 13.789062c4.1875 4.039062 10.839844 3.984375 14.957032-.128906 4.113281-4.117188 4.171875-10.765625.128906-14.957032zm0 0" fill="#efb13b" fill-opacity="1" data-original-color="#000000ff" stroke="none" stroke-opacity="1"/><path d="m88.039062 355.125-13.789062 13.789062-13.792969-13.789062c-4.183593-4.039062-10.839843-3.984375-14.949219.128906-4.117187 4.117188-4.175781 10.765625-.132812 14.957032l21.332031 21.332031c4.164063 4.160156 10.917969 4.160156 15.082031 0l21.335938-21.332031c4.042969-4.191407 3.984375-10.839844-.128906-14.957032-4.117188-4.113281-10.769532-4.167968-14.957032-.128906zm0 0" fill="#efb13b" fill-opacity="1" data-original-color="#000000ff" stroke="none" stroke-opacity="1"/><path d="m95.585938 309.332031h-42.667969c-5.894531 0-10.667969 4.777344-10.667969 10.667969s4.773438 10.667969 10.667969 10.667969h42.667969c5.886718 0 10.664062-4.777344 10.664062-10.667969s-4.777344-10.667969-10.664062-10.667969zm0 0" fill="#efb13b" fill-opacity="1" data-original-color="#000000ff" stroke="none" stroke-opacity="1"/><path d="m354.710938 338.207031c4.164062 4.167969 10.917968 4.167969 15.082031 0l10.664062-10.667969c4.042969-4.183593 3.984375-10.835937-.125-14.953124-4.117187-4.113282-10.773437-4.167969-14.957031-.125l-10.664062 10.664062c-4.164063 4.164062-4.164063 10.917969 0 15.082031zm0 0" fill="#efb13b" fill-opacity="1" data-original-color="#000000ff" stroke="none" stroke-opacity="1"/><path d="m376.042969 370.210938c4.164062 4.160156 10.917969 4.160156 15.082031 0l42.667969-42.671876c4.042969-4.183593 3.984375-10.835937-.132813-14.953124-4.109375-4.113282-10.765625-4.167969-14.949218-.125l-42.667969 42.664062c-4.164063 4.167969-4.164063 10.921875 0 15.085938zm0 0" fill="#efb13b" fill-opacity="1" data-original-color="#000000ff" stroke="none" stroke-opacity="1"/></g></svg>