<svg xmlns="http://www.w3.org/2000/svg" viewBox="0 0 64 64" width="300" height="300" version="1.1" xmlns:xlink="http://www.w3.org/1999/xlink" xmlns:svgjs="http://svgjs.dev/svgjs"><g width="100%" height="100%" transform="matrix(1,0,0,1,0,0)"><title/><g id="outline"><path d="M41,12H5a1,1,0,0,0-1,1V63a1,1,0,0,0,1,1H41a1,1,0,0,0,1-1V13A1,1,0,0,0,41,12ZM22,62H6V26H22Zm18,0H24V26H40Zm0-38H6V14H40Z" fill="#efb13b" fill-opacity="1" data-original-color="#000000ff" stroke="none" stroke-opacity="1"/><path d="M10.707,41.707,13,39.414V50a1,1,0,0,0,2,0V39.414l2.293,2.293a1,1,0,0,0,1.414-1.414l-4-4a1,1,0,0,0-1.416,0l-4,4a1,1,0,0,0,1.414,1.414Z" fill="#efb13b" fill-opacity="1" data-original-color="#000000ff" stroke="none" stroke-opacity="1"/><path d="M31.292,50.706a1,1,0,0,0,1.416,0l4-4a1,1,0,0,0-1.414-1.414L33,47.586V37a1,1,0,0,0-2,0V47.586l-2.293-2.293a1,1,0,0,0-1.414,1.414Z" fill="#efb13b" fill-opacity="1" data-original-color="#000000ff" stroke="none" stroke-opacity="1"/><path d="M9,22h4a1,1,0,0,0,1-1V17a1,1,0,0,0-1-1H9a1,1,0,0,0-1,1v4A1,1,0,0,0,9,22Zm1-4h2v2H10Z" fill="#efb13b" fill-opacity="1" data-original-color="#000000ff" stroke="none" stroke-opacity="1"/><path d="M17,22h4a1,1,0,0,0,1-1V17a1,1,0,0,0-1-1H17a1,1,0,0,0-1,1v4A1,1,0,0,0,17,22Zm1-4h2v2H18Z" fill="#efb13b" fill-opacity="1" data-original-color="#000000ff" stroke="none" stroke-opacity="1"/><path d="M25,22h4a1,1,0,0,0,1-1V17a1,1,0,0,0-1-1H25a1,1,0,0,0-1,1v4A1,1,0,0,0,25,22Zm1-4h2v2H26Z" fill="#efb13b" fill-opacity="1" data-original-color="#000000ff" stroke="none" stroke-opacity="1"/><path d="M33,22h4a1,1,0,0,0,1-1V17a1,1,0,0,0-1-1H33a1,1,0,0,0-1,1v4A1,1,0,0,0,33,22Zm1-4h2v2H34Z" fill="#efb13b" fill-opacity="1" data-original-color="#000000ff" stroke="none" stroke-opacity="1"/><path d="M58,24H46a1,1,0,0,0-1,1V43a1,1,0,0,0,1,1H58a1,1,0,0,0,1-1V25A1,1,0,0,0,58,24ZM57,42H47V26H57Z" fill="#efb13b" fill-opacity="1" data-original-color="#000000ff" stroke="none" stroke-opacity="1"/><path d="M50.707,31.707,52,30.414l1.293,1.293a1,1,0,0,0,1.414-1.414l-2-2a1,1,0,0,0-1.414,0l-2,2a1,1,0,0,0,1.414,1.414Z" fill="#efb13b" fill-opacity="1" data-original-color="#000000ff" stroke="none" stroke-opacity="1"/><path d="M51.293,39.707a1,1,0,0,0,1.414,0l2-2a1,1,0,0,0-1.414-1.414L52,37.586l-1.293-1.293a1,1,0,0,0-1.414,1.414Z" fill="#efb13b" fill-opacity="1" data-original-color="#000000ff" stroke="none" stroke-opacity="1"/></g></g></svg>