<svg xmlns="http://www.w3.org/2000/svg" viewBox="0 0 96 96" width="300" height="300" version="1.1" xmlns:xlink="http://www.w3.org/1999/xlink" xmlns:svgjs="http://svgjs.dev/svgjs"><g width="100%" height="100%" transform="matrix(1,0,0,1,0,0)"><g id="Security_gate_airport" data-name="Security gate airport"><path d="M22.92,17h-.47a1,1,0,0,0,0,2h.47a1,1,0,0,0,0-2Z" fill="#efb13b" fill-opacity="1" data-original-color="#000000ff" stroke="none" stroke-opacity="1"/><path d="M26.28,17h-.47a1,1,0,0,0,0,2h.47a1,1,0,0,0,0-2Z" fill="#efb13b" fill-opacity="1" data-original-color="#000000ff" stroke="none" stroke-opacity="1"/><path d="M29.64,17h-.47a1,1,0,0,0,0,2h.47a1,1,0,0,0,0-2Z" fill="#efb13b" fill-opacity="1" data-original-color="#000000ff" stroke="none" stroke-opacity="1"/><path d="M33,17h-.47a1,1,0,0,0,0,2H33a1,1,0,0,0,0-2Z" fill="#efb13b" fill-opacity="1" data-original-color="#000000ff" stroke="none" stroke-opacity="1"/><path d="M36.36,17h-.47a1,1,0,0,0,0,2h.47a1,1,0,0,0,0-2Z" fill="#efb13b" fill-opacity="1" data-original-color="#000000ff" stroke="none" stroke-opacity="1"/><path d="M39.72,17h-.47a1,1,0,0,0,0,2h.47a1,1,0,0,0,0-2Z" fill="#efb13b" fill-opacity="1" data-original-color="#000000ff" stroke="none" stroke-opacity="1"/><path d="M41.61,18a1,1,0,0,0,1,1h.47a1,1,0,0,0,0-2h-.47A1,1,0,0,0,41.61,18Z" fill="#efb13b" fill-opacity="1" data-original-color="#000000ff" stroke="none" stroke-opacity="1"/><path d="M46,19h.47a1,1,0,0,0,0-2H46a1,1,0,0,0,0,2Z" fill="#efb13b" fill-opacity="1" data-original-color="#000000ff" stroke="none" stroke-opacity="1"/><path d="M49.33,19h.47a1,1,0,0,0,0-2h-.47a1,1,0,0,0,0,2Z" fill="#efb13b" fill-opacity="1" data-original-color="#000000ff" stroke="none" stroke-opacity="1"/><path d="M94.5,80.54H84.44V61.21a1,1,0,0,0-1-1H78.35a1,1,0,0,0-1,1v1.4H71.58v-1.4a1,1,0,0,0-1-1H65.5a1,1,0,0,0-1,1V80.54H60.25V14.8a1,1,0,0,0-1-1H42.91a3.41,3.41,0,0,0-1.95-3l-.85-5.37a1,1,0,0,0-1-.85h-6a1,1,0,0,0-1,.85l-.85,5.37a3.41,3.41,0,0,0-1.95,3H13a1,1,0,0,0-1,1V80.54H1.5a1,1,0,0,0-1,1v8.84a1,1,0,0,0,1,1h93a1,1,0,0,0,1-1V81.54A1,1,0,0,0,94.5,80.54ZM77.35,64.61v5.77H71.58V64.61Zm-7.77-2.4v9.17a1,1,0,0,0,.61.92c.27.11-.32.08,8.16.08a1,1,0,0,0,1-1V62.21h3.09V77.44H66.5V62.21ZM66.5,79.44H82.44v1.1H66.5ZM19.59,22.22H52.66v6.49H19.59ZM54.66,75.29h3.59v5.25H54.66Zm3.59-2H54.66V15.8h3.59ZM52.66,20.22H19.59V15.8H52.66ZM34,6.62h4.29l.61,3.88H33.37ZM32.74,12.5h6.77a1.41,1.41,0,0,1,1.4,1.3H31.34A1.41,1.41,0,0,1,32.74,12.5ZM17.59,15.8V73.29H14V15.8ZM14,75.29h3.59v5.25H14Zm5.59-44.58H52.66V80.54H19.59ZM93.5,89.38H2.5V82.54h91Z" fill="#efb13b" fill-opacity="1" data-original-color="#000000ff" stroke="none" stroke-opacity="1"/></g></g></svg>