<svg id="Layer_1" enable-background="new 0 0 500 500" viewBox="0 0 500 500" xmlns="http://www.w3.org/2000/svg" width="300" height="300" version="1.1" xmlns:xlink="http://www.w3.org/1999/xlink" xmlns:svgjs="http://svgjs.dev/svgjs"><g width="100%" height="100%" transform="matrix(1,0,0,1,0,0)"><g fill="#141515"><path d="m308.865 389.684c.247.044.494.067.738.067 1.925 0 3.634-1.373 3.995-3.335l45.906-250.377c.405-2.209-1.057-4.329-3.269-4.734-2.198-.388-4.328 1.06-4.733 3.269l-45.906 250.376c-.405 2.209 1.057 4.329 3.269 4.734z" fill="#efb13b" fill-opacity="1" data-original-color="#141515ff" stroke="none" stroke-opacity="1"/><path d="m181.452 389.684c.248.044.497.067.741.067 1.923 0 3.635-1.371 3.996-3.332l46.067-250.378c.404-2.208-1.058-4.328-3.266-4.736-2.201-.399-4.331 1.055-4.736 3.266l-46.066 250.378c-.407 2.207 1.056 4.326 3.264 4.735z" fill="#efb13b" fill-opacity="1" data-original-color="#141515ff" stroke="none" stroke-opacity="1"/><path d="m271.008 389.684c.247.044.496.067.741.067 1.923 0 3.634-1.371 3.995-3.332l46.07-250.378c.405-2.208-1.057-4.328-3.266-4.736-2.197-.399-4.331 1.055-4.736 3.266l-46.07 250.378c-.405 2.207 1.058 4.326 3.266 4.735z" fill="#efb13b" fill-opacity="1" data-original-color="#141515ff" stroke="none" stroke-opacity="1"/><path d="m143.762 389.684c.247.044.494.067.738.067 1.926 0 3.635-1.373 3.995-3.335l45.906-250.377c.405-2.209-1.057-4.329-3.269-4.734-2.192-.388-4.328 1.06-4.733 3.269l-45.906 250.376c-.405 2.209 1.057 4.329 3.269 4.734z" fill="#efb13b" fill-opacity="1" data-original-color="#141515ff" stroke="none" stroke-opacity="1"/><path d="m190.561 68.927h118.876c7.927 0 14.375-6.495 14.375-14.48 0-7.894-6.448-14.317-14.375-14.317h-118.876c-7.927 0-14.375 6.423-14.375 14.317 0 7.986 6.448 14.48 14.375 14.48zm0-20.662h118.876c3.44 0 6.24 2.772 6.24 6.182 0 3.44-2.857 6.345-6.24 6.345h-118.876c-3.382 0-6.24-2.905-6.24-6.345 0-3.41 2.799-6.182 6.24-6.182z" fill="#efb13b" fill-opacity="1" data-original-color="#141515ff" stroke="none" stroke-opacity="1"/><path d="m374.512 85.684h-249.024c-2.248 0-4.067 1.82-4.067 4.068v341.321c0 2.247 1.82 4.067 4.067 4.067h249.024c2.247 0 4.068-1.82 4.068-4.067v-341.322c0-2.247-1.821-4.067-4.068-4.067zm-128.581 341.321h-116.375v-333.187h116.376v333.187zm124.513 0h-116.378v-333.187h116.378z" fill="#efb13b" fill-opacity="1" data-original-color="#141515ff" stroke="none" stroke-opacity="1"/><path d="m416.714 466.865h-333.428c-2.247 0-4.068 1.82-4.068 4.067s1.82 4.068 4.068 4.068h333.427c2.247 0 4.068-1.82 4.068-4.068 0-2.247-1.82-4.067-4.067-4.067z" fill="#efb13b" fill-opacity="1" data-original-color="#141515ff" stroke="none" stroke-opacity="1"/><path d="m104.387 461.008h291.225c2.248 0 4.068-1.82 4.068-4.068v-389.802c0-3.968-3.266-7.322-7.128-7.322h-23.479v-5.369c.001-16.237-13.023-29.447-29.033-29.447h-180.083c-16.01 0-29.033 13.21-29.033 29.447v5.369h-23.315c-4.018 0-7.289 3.285-7.289 7.322v389.802c0 2.247 1.82 4.068 4.067 4.068zm4.068-393.057h26.536c2.247 0 4.068-1.82 4.068-4.068v-9.436c0-11.751 9.376-21.312 20.899-21.312h180.082c11.523 0 20.899 9.561 20.899 21.312v9.436c0 2.247 1.82 4.068 4.068 4.068h26.539v384.922h-283.09v-384.922z" fill="#efb13b" fill-opacity="1" data-original-color="#141515ff" stroke="none" stroke-opacity="1"/></g></g></svg>