<svg height="300" viewBox="-48 0 480 480" width="300" xmlns="http://www.w3.org/2000/svg" version="1.1" xmlns:xlink="http://www.w3.org/1999/xlink" xmlns:svgjs="http://svgjs.dev/svgjs"><g width="100%" height="100%" transform="matrix(1,0,0,1,0,0)"><path d="m64.003906 368h240v-304h-240zm128-288h96v272h-96zm-112 0h96v272h-96zm0 0" fill="#efb13b" fill-opacity="1" data-original-color="#000000ff" stroke="none" stroke-opacity="1"/><path d="m64.003906 0v48h48v-48zm32 32h-16v-16h16zm0 0" fill="#efb13b" fill-opacity="1" data-original-color="#000000ff" stroke="none" stroke-opacity="1"/><path d="m176.003906 0h-48v48h48zm-16 32h-16v-16h16zm0 0" fill="#efb13b" fill-opacity="1" data-original-color="#000000ff" stroke="none" stroke-opacity="1"/><path d="m192.003906 0v48h48v-48zm32 32h-16v-16h16zm0 0" fill="#efb13b" fill-opacity="1" data-original-color="#000000ff" stroke="none" stroke-opacity="1"/><path d="m304.003906 0h-48v48h48zm-16 32h-16v-16h16zm0 0" fill="#efb13b" fill-opacity="1" data-original-color="#000000ff" stroke="none" stroke-opacity="1"/><path d="m358.402344 131.203125c-1.574219-1.914063-3.921875-3.023437-6.398438-3.023437-2.480468 0-4.824218 1.109374-6.398437 3.023437l-24 32c-1.820313 2.421875-2.113281 5.667969-.757813 8.375 1.355469 2.710937 4.125 4.421875 7.15625 4.421875h48c3.027344 0 5.800782-1.710938 7.15625-4.421875 1.351563-2.707031 1.058594-5.953125-.757812-8.375zm-14.398438 28.796875 8-10.664062 8 10.664062zm0 0" fill="#efb13b" fill-opacity="1" data-original-color="#000000ff" stroke="none" stroke-opacity="1"/><path d="m376.003906 192h-48c-3.03125 0-5.800781 1.710938-7.15625 4.421875-1.355468 2.707031-1.0625 5.953125.757813 8.375l24 32c1.507812 2.015625 3.878906 3.203125 6.398437 3.203125 2.515625 0 4.886719-1.1875 6.398438-3.203125l24-32c1.816406-2.421875 2.109375-5.667969.757812-8.375-1.355468-2.710937-4.128906-4.421875-7.15625-4.421875zm-24 26.664062-8-10.664062h16zm0 0" fill="#efb13b" fill-opacity="1" data-original-color="#000000ff" stroke="none" stroke-opacity="1"/><path d="m302.253906 387c-1.519531-1.894531-3.820312-3-6.25-3h-224c-2.429687 0-4.730468 1.105469-6.25 3l-64 80c-1.921875 2.402344-2.296875 5.691406-.964844 8.464844 1.332032 2.773437 4.136719 4.535156 7.214844 4.535156h352c3.074219 0 5.878906-1.761719 7.210938-4.535156 1.332031-2.773438.960937-6.0625-.960938-8.464844zm-277.601562 77 51.195312-64h216.3125l51.195313 64zm0 0" fill="#efb13b" fill-opacity="1" data-original-color="#000000ff" stroke="none" stroke-opacity="1"/></g></svg>