<svg id="Layer_1" enable-background="new 0 0 512 512" height="300" viewBox="0 0 512 512" width="300" xmlns="http://www.w3.org/2000/svg" version="1.1" xmlns:xlink="http://www.w3.org/1999/xlink" xmlns:svgjs="http://svgjs.dev/svgjs"><g width="100%" height="100%" transform="matrix(1,0,0,1,0,0)"><g id="_x30_2_Elevator"><g><g><g><path d="m89.916 303.549c-1.8 0-3.26 1.459-3.26 3.259v32.593c0 1.8 1.459 3.259 3.26 3.259 1.8 0 3.26-1.459 3.26-3.259v-32.593c0-1.8-1.459-3.259-3.26-3.259z" fill="#efb13b" fill-opacity="1" data-original-color="#000000ff" stroke="none" stroke-opacity="1"/><path d="m89.916 278.44c-1.8 0-3.26 1.459-3.26 3.26v8.631c0 1.8 1.459 3.259 3.26 3.259 1.8 0 3.26-1.459 3.26-3.259v-8.631c0-1.801-1.459-3.26-3.26-3.26z" fill="#efb13b" fill-opacity="1" data-original-color="#000000ff" stroke="none" stroke-opacity="1"/></g></g><g><path d="m468.4 359.441c1.8 0 3.259-1.459 3.259-3.259v-9.021c0-1.8-1.459-3.259-3.259-3.259-1.799 0-3.259 1.459-3.259 3.259v9.021c0 1.8 1.459 3.259 3.259 3.259z" fill="#efb13b" fill-opacity="1" data-original-color="#000000ff" stroke="none" stroke-opacity="1"/><path d="m468.4 425.799c1.8 0 3.259-1.459 3.259-3.259v-49.227c0-1.8-1.459-3.259-3.259-3.259-1.799 0-3.259 1.459-3.259 3.259v49.227c0 1.8 1.459 3.259 3.259 3.259z" fill="#efb13b" fill-opacity="1" data-original-color="#000000ff" stroke="none" stroke-opacity="1"/><path d="m48.111 64.125c1.8 0 3.26-1.459 3.26-3.26.071-4.49-.231-7.61.49-12.767.285-1.959-1.227-3.724-3.228-3.724-1.664 0-3.036 1.258-3.235 2.87-.794 5.699-.472 9.171-.546 13.621-.001 1.8 1.459 3.26 3.259 3.26z" fill="#efb13b" fill-opacity="1" data-original-color="#000000ff" stroke="none" stroke-opacity="1"/><path d="m53.521 31.773c1.543.896 3.546.379 4.453-1.191 7.833-13.545 21.443-22.406 36.69-24.107 1.528-.17 2.821-1.491 2.765-3.364-.057-1.902-1.747-3.307-3.637-3.088-17.314 2.005-32.632 12.023-41.462 27.297-.901 1.559-.368 3.553 1.191 4.453z" fill="#efb13b" fill-opacity="1" data-original-color="#000000ff" stroke="none" stroke-opacity="1"/><path d="m481.441 505.482h-30.64v-450.432c0-19.05-15.498-34.548-34.548-34.548h-316.007c-19.05 0-34.548 15.498-34.548 34.548v450.431h-35.139c-1.8 0-3.26 1.459-3.26 3.259s1.459 3.26 3.26 3.26h450.882c1.8 0 3.26-1.459 3.26-3.26-.001-1.799-1.46-3.258-3.26-3.258zm-348.026 0v-401.703c0-6.829 5.556-12.386 12.385-12.386h106.941v414.087zm125.844 0v-414.088h111.44c6.829 0 12.385 5.556 12.385 12.386v401.703h-123.825zm130.344 0v-401.703c0-10.423-8.48-18.904-18.904-18.904h-224.9c-10.423 0-18.904 8.48-18.904 18.904v401.703h-54.679v-450.432c0-15.456 12.574-28.03 28.03-28.03h316.007c15.456 0 28.03 12.574 28.03 28.03v450.431h-54.679v.001z" fill="#efb13b" fill-opacity="1" data-original-color="#000000ff" stroke="none" stroke-opacity="1"/><path d="m313.333 39.19h-110.166c-4.672 0-8.474 3.802-8.474 8.474v16.569c0 4.672 3.802 8.474 8.474 8.474h110.165c4.672 0 8.474-3.802 8.474-8.474v-16.569c.001-4.672-3.801-8.474-8.473-8.474zm1.955 25.043c0 1.079-.877 1.956-1.956 1.956h-110.165c-1.079 0-1.956-.877-1.956-1.956v-16.569c0-1.079.877-1.956 1.956-1.956h110.165c1.079 0 1.956.877 1.956 1.956z" fill="#efb13b" fill-opacity="1" data-original-color="#000000ff" stroke="none" stroke-opacity="1"/><path d="m429.427 177.179h-23.319c-4.672 0-8.474 3.802-8.474 8.474v33.668c0 4.672 3.802 8.474 8.474 8.474h23.319c4.672 0 8.474-3.802 8.474-8.474v-33.668c0-4.672-3.801-8.474-8.474-8.474zm1.956 42.143c0 1.079-.877 1.956-1.956 1.956h-23.319c-1.079 0-1.956-.877-1.956-1.956v-33.668c0-1.079.877-1.956 1.956-1.956h23.319c1.079 0 1.956.877 1.956 1.956z" fill="#efb13b" fill-opacity="1" data-original-color="#000000ff" stroke="none" stroke-opacity="1"/><path d="m420.073 252.522c-1.273-1.273-3.336-1.273-4.609 0l-14.879 14.879c-1.273 1.273-1.273 3.336 0 4.609s3.336 1.273 4.609 0l12.575-12.575 12.575 12.575c1.273 1.273 3.336 1.273 4.609 0s1.273-3.336 0-4.609z" fill="#efb13b" fill-opacity="1" data-original-color="#000000ff" stroke="none" stroke-opacity="1"/><path d="m430.343 294.956-12.575 12.575-12.575-12.575c-1.273-1.273-3.336-1.273-4.609 0s-1.273 3.336 0 4.609l14.879 14.879c.637.637 1.471.955 2.305.955s1.668-.319 2.305-.955l14.879-14.879c1.273-1.273 1.273-3.336 0-4.609-1.274-1.273-3.336-1.273-4.609 0z" fill="#efb13b" fill-opacity="1" data-original-color="#000000ff" stroke="none" stroke-opacity="1"/></g></g></g></g></svg>