<svg enable-background="new 0 0 512 512" height="300" viewBox="0 0 512 512" width="300" xmlns="http://www.w3.org/2000/svg" version="1.1" xmlns:xlink="http://www.w3.org/1999/xlink" xmlns:svgjs="http://svgjs.dev/svgjs"><g width="100%" height="100%" transform="matrix(1,0,0,1,0,0)"><g id="_x32_1_Elecation"><g><path d="m33.336 505.657c0 2.933 2.378 5.312 5.312 5.312h392.54c2.933 0 5.312-2.378 5.312-5.312s-2.378-5.312-5.312-5.312h-392.541c-2.933 0-5.311 2.378-5.311 5.312z" fill="#efb13b" fill-opacity="1" data-original-color="#000000ff" stroke="none" stroke-opacity="1"/><path d="m60.525 484.389c0 2.933 2.378 5.312 5.312 5.312 2.933 0 5.312-2.378 5.312-5.312v-108.945c0-2.933-2.378-5.312-5.312-5.312-2.933 0-5.312 2.378-5.312 5.312z" fill="#efb13b" fill-opacity="1" data-original-color="#000000ff" stroke="none" stroke-opacity="1"/><path d="m60.525 354.09c0 2.933 2.378 5.312 5.312 5.312 2.933 0 5.312-2.378 5.312-5.312v-17.795c0-2.933-2.378-5.312-5.312-5.312-2.933 0-5.312 2.378-5.312 5.312z" fill="#efb13b" fill-opacity="1" data-original-color="#000000ff" stroke="none" stroke-opacity="1"/><path d="m60.543 6.343c0 .722-.007 108.655-.018 283.473 0 2.933 2.378 5.312 5.312 5.312 2.933 0 5.312-2.378 5.312-5.312v-182.024h158.45v376.596c0 2.933 2.378 5.312 5.312 5.312h.001s.001 0 .001 0c2.933 0 5.312-2.378 5.312-5.312v-376.596h158.45v376.596c0 2.933 2.378 5.312 5.312 5.312s5.312-2.378 5.312-5.312c0-42.147-.005-427.43-.005-478.046 0-2.933-2.378-5.312-5.312-5.312h-169.063-169.064c-2.933.001-5.312 2.38-5.312 5.313zm338.127 90.813h-158.44v-85.501h158.44zm-169.063-85.501v85.501h-158.44v-85.501z" fill="#efb13b" fill-opacity="1" data-original-color="#000000ff" stroke="none" stroke-opacity="1"/><path d="m139.694 65.362 10.673-10.673 10.709 10.712c1.037 1.037 2.397 1.556 3.756 1.556s2.718-.519 3.756-1.556c2.075-2.072 2.075-5.436 0-7.511l-14.465-14.468c-.996-.996-2.347-1.556-3.756-1.556-1.408 0-2.76.56-3.756 1.556l-14.429 14.429c-2.075 2.075-2.075 5.436 0 7.511 2.076 2.075 5.437 2.075 7.512 0z" fill="#efb13b" fill-opacity="1" data-original-color="#000000ff" stroke="none" stroke-opacity="1"/><path d="m315.714 65.401c1.037 1.037 2.397 1.556 3.756 1.556s2.718-.519 3.756-1.556l14.429-14.429c2.075-2.075 2.075-5.436 0-7.511s-5.436-2.075-7.511 0l-10.674 10.673-10.712-10.712c-2.075-2.075-5.436-2.075-7.511 0s-2.075 5.436 0 7.511z" fill="#efb13b" fill-opacity="1" data-original-color="#000000ff" stroke="none" stroke-opacity="1"/><path d="m457.687 187.47c-11.568 0-20.978 9.41-20.978 20.978 0 11.524 9.41 20.9 20.978 20.9s20.978-9.376 20.978-20.9c-.001-11.568-9.41-20.978-20.978-20.978zm0 31.254c-5.709 0-10.354-4.609-10.354-10.276 0-5.709 4.645-10.354 10.354-10.354s10.354 4.645 10.354 10.354c0 5.667-4.646 10.276-10.354 10.276z" fill="#efb13b" fill-opacity="1" data-original-color="#000000ff" stroke="none" stroke-opacity="1"/><path d="m457.687 244.806c-11.568 0-20.978 9.41-20.978 20.978 0 11.526 9.41 20.902 20.978 20.902s20.978-9.376 20.978-20.902c-.001-11.568-9.41-20.978-20.978-20.978zm0 31.256c-5.709 0-10.354-4.612-10.354-10.279 0-5.709 4.645-10.354 10.354-10.354s10.354 4.645 10.354 10.354c0 5.668-4.646 10.279-10.354 10.279z" fill="#efb13b" fill-opacity="1" data-original-color="#000000ff" stroke="none" stroke-opacity="1"/><path d="m457.687 302.144c-11.568 0-20.978 9.41-20.978 20.978 0 11.524 9.41 20.9 20.978 20.9s20.978-9.376 20.978-20.9c-.001-11.568-9.41-20.978-20.978-20.978zm0 31.254c-5.709 0-10.354-4.609-10.354-10.276 0-5.709 4.645-10.354 10.354-10.354s10.354 4.645 10.354 10.354c0 5.667-4.646 10.276-10.354 10.276z" fill="#efb13b" fill-opacity="1" data-original-color="#000000ff" stroke="none" stroke-opacity="1"/></g></g></g></svg>