<svg enable-background="new 0 0 512 512" viewBox="0 0 512 512" xmlns="http://www.w3.org/2000/svg" width="300" height="300" version="1.1" xmlns:xlink="http://www.w3.org/1999/xlink" xmlns:svgjs="http://svgjs.dev/svgjs"><g width="100%" height="100%" transform="matrix(1,0,0,1,0,0)"><g id="_x31_7_Elevator"><g><path d="m472.567 218.598h-64.527v-116.148c0-10.471-8.571-19.041-19.09-19.041h-49.284v-46.412c0-16.217-13.149-29.366-29.317-29.366h-142.008c-16.168 0-29.366 13.149-29.366 29.366v46.411h-49.284c-10.471 0-19.042 8.571-19.042 19.041v392.179h-47.823c-2.678 0-4.87 2.191-4.87 4.87 0 2.678 2.192 4.87 4.87 4.87h433.038c2.679 0 4.87-2.192 4.87-4.87 0-2.679-2.191-4.87-4.87-4.87h-47.824v-96.231h64.527c11.834 0 21.477-9.643 21.477-21.477v-136.845c0-11.834-9.642-21.477-21.477-21.477zm-233.222-163.338c-2.678 0-4.87-2.192-4.87-4.87s2.192-4.87 4.87-4.87c2.337 0 4.383-1.997 4.383-4.383s-1.997-4.383-4.383-4.383c-2.435 0-4.383 1.948-4.383 4.383 0 2.679-2.191 4.87-4.87 4.87-2.678 0-4.87-2.191-4.87-4.87 0-7.792 6.331-14.123 14.123-14.123s14.123 6.331 14.123 14.123c0 3.555-1.364 6.769-3.555 9.253 2.192 2.484 3.555 5.698 3.555 9.253 0 7.743-6.331 14.074-14.123 14.074s-14.123-6.331-14.123-14.074c0-2.727 2.192-4.87 4.87-4.87 2.679 0 4.87 2.143 4.87 4.87 0 2.386 1.948 4.334 4.383 4.334 2.337 0 4.383-1.997 4.383-4.334 0-2.435-1.997-4.383-4.383-4.383zm-4.87 439.369h-124.866v-372.26h124.866zm134.606 0h-124.866v-372.26h124.866zm29.219 0h-19.48v-377.13c0-2.679-2.191-4.87-4.87-4.87h-269.211c-2.678 0-4.87 2.191-4.87 4.87v377.13h-19.48v-392.179c0-5.113 4.188-9.302 9.302-9.302h299.259c5.162 0 9.35 4.188 9.35 9.302zm86.004-117.708c0 6.477-5.26 11.737-11.737 11.737h-64.527v-160.32h64.527c6.477 0 11.737 5.26 11.737 11.737z" fill="#efb13b" fill-opacity="1" data-original-color="#000000ff" stroke="none" stroke-opacity="1"/><path d="m470.132 339.617-13.879 19.383c-2.337 3.263-6.087 5.162-10.081 5.162-3.993 0-7.792-1.899-10.081-5.162l-13.879-19.382c-2.727-3.799-3.068-8.766-.925-12.906 2.094-4.139 6.331-6.721 11.006-6.721h27.71c4.675 0 8.912 2.581 11.055 6.721 2.143 4.139 1.802 9.107-.926 12.905z" fill="#efb13b" fill-opacity="1" data-original-color="#000000ff" stroke="none" stroke-opacity="1"/><path d="m471.058 290.284c-2.143 4.139-6.38 6.721-11.055 6.721h-27.71c-4.675 0-8.912-2.581-11.006-6.721-2.143-4.188-1.802-9.107.925-12.906l13.879-19.382c2.289-3.263 6.087-5.211 10.081-5.211 3.993 0 7.743 1.948 10.081 5.211l13.879 19.382c2.728 3.8 3.069 8.718.926 12.906z" fill="#efb13b" fill-opacity="1" data-original-color="#000000ff" stroke="none" stroke-opacity="1"/></g></g><g id="Layer_1"/></g></svg>