<svg xmlns="http://www.w3.org/2000/svg" id="Layer_1" data-name="Layer 1" viewBox="0 0 512 512" width="300" height="300" version="1.1" xmlns:xlink="http://www.w3.org/1999/xlink" xmlns:svgjs="http://svgjs.dev/svgjs"><g width="100%" height="100%" transform="matrix(1,0,0,1,0,0)"><path d="M257.68,111.73a29.075,29.075,0,0,0,27.646-19.964,6,6,0,1,0-11.392-3.772,17.124,17.124,0,0,1-32.508,0,6,6,0,0,0-11.392,3.772A29.074,29.074,0,0,0,257.68,111.73Z" fill="#efb13b" fill-opacity="1" data-original-color="#000000ff" stroke="none" stroke-opacity="1"/><path d="M299.38,92.1a6,6,0,0,0-7.813,3.312,36.555,36.555,0,0,1-67.786,0,6,6,0,0,0-11.122,4.506,48.555,48.555,0,0,0,90.033,0A6,6,0,0,0,299.38,92.1Z" fill="#efb13b" fill-opacity="1" data-original-color="#000000ff" stroke="none" stroke-opacity="1"/><path d="M232,59h52a6,6,0,0,0,6-6V29a6,6,0,0,0-6-6H232a6,6,0,0,0-6,6V53A6,6,0,0,0,232,59Zm6-24h40V47H238Z" fill="#efb13b" fill-opacity="1" data-original-color="#000000ff" stroke="none" stroke-opacity="1"/><path d="M167,119.84a6,6,0,0,0-6,6v3.6a6,6,0,0,0,12,0v-3.6A6,6,0,0,0,167,119.84Z" fill="#efb13b" fill-opacity="1" data-original-color="#000000ff" stroke="none" stroke-opacity="1"/><path d="M167,143.52a6,6,0,0,0-6,6V259.03a6,6,0,0,0,12,0V149.52A6,6,0,0,0,167,143.52Z" fill="#efb13b" fill-opacity="1" data-original-color="#000000ff" stroke="none" stroke-opacity="1"/><path d="M427.54,466H407V10.09C407,6.776,404.813,4,401.5,4h-291c-3.313,0-6.5,2.776-6.5,6.09V466H84.46c-3.314,0-6.46,2.586-6.46,5.9v30.01c0,3.314,3.146,6.09,6.46,6.09H427.54c3.314,0,6.46-2.776,6.46-6.09V471.9C434,468.586,430.854,466,427.54,466ZM116,16H395V466H376V72.9a5.89,5.89,0,0,0-5.97-5.9H141.97A5.89,5.89,0,0,0,136,72.9V466H116ZM230.686,325l-2.547-42.218a6.047,6.047,0,0,0-6.351-5.684,5.767,5.767,0,0,0-5.627,6.088L219.916,345h-.956a8.616,8.616,0,0,1-8.96-8.72V270.14A18.042,18.042,0,0,1,228.38,252h13.209l-3.029,37.338a5.665,5.665,0,0,0,.966,3.662l11.46,17.382a6.008,6.008,0,0,0,10.029-.043l11.46-17.447a5.362,5.362,0,0,0,.965-3.551L270.413,252H283.62A18.042,18.042,0,0,1,302,270.14v66.14a8.616,8.616,0,0,1-8.96,8.72h-.382l3.751-61.844a5.9,5.9,0,0,0-5.628-6.233,6.142,6.142,0,0,0-6.35,5.8L281.887,325Zm50.476,12-6.291,104H262V337ZM250,337V441H237.71l-6.3-104ZM235.513,196.48a6.1,6.1,0,0,0,2.828-4.651l.593-7.409A33.171,33.171,0,0,0,267.065,173.3a5.717,5.717,0,0,1,4.492,3.066L275.82,193.9a6,6,0,0,0,3.348,4.044,6.053,6.053,0,0,0-1.158,3.529,22.1,22.1,0,0,1-32.724,19.371,22.383,22.383,0,0,1-5-3.758,21.935,21.935,0,0,1-6.469-15.663,5.973,5.973,0,0,0-1.549-4A5.96,5.96,0,0,0,235.513,196.48Zm-2.851-24.319A23.746,23.746,0,0,1,255.92,153.15a23.494,23.494,0,0,1,17.349,7.538,24.059,24.059,0,0,1,2.559,3.261,17.654,17.654,0,0,0-8.547-2.663l-2.739-.12a6.019,6.019,0,0,0-5.15,2.515,21.182,21.182,0,0,1-19.518,8.773l-4.6-.489a7.4,7.4,0,0,0-.785-.043A7.086,7.086,0,0,0,232.662,172.161ZM248,240v-5.344a37.613,37.613,0,0,0,7.745.9,31.739,31.739,0,0,0,7.255-.8V240Zm13.313,48.248L256,296.219l-5.314-7.914L253.625,252h4.747ZM291.933,357h1.107A20.621,20.621,0,0,0,314,336.28V270.14A30.053,30.053,0,0,0,283.62,240H275V229.581a24.112,24.112,0,0,0,4.934-4,33.832,33.832,0,0,0,9.8-20.082,13.59,13.59,0,0,0,3.063-2.636,13.222,13.222,0,0,0,3.106-8.479,12.835,12.835,0,0,0-.372-3.12,11.274,11.274,0,0,0-4.345-6.533l.372-5.4a35.719,35.719,0,1,0-71.354-2.5c0,.889.028,1.712.084,2.5l.375,5.426a11.444,11.444,0,0,0-4.388,6.543,13.4,13.4,0,0,0-.361,3.088,13.12,13.12,0,0,0,6.146,11.142,33.662,33.662,0,0,0,9.661,20.051c1.345,1.345,3.283,2.561,4.283,3.669V240h-7.62A30.053,30.053,0,0,0,198,270.14v66.14A20.621,20.621,0,0,0,218.96,357h1.681l5.067,84H148V79H364V441H286.872ZM422,496H90V478h73.425a6,6,0,0,0,0-12H148V453H364v13H190.034a6,6,0,0,0,0,12H422Z" fill="#efb13b" fill-opacity="1" data-original-color="#000000ff" stroke="none" stroke-opacity="1"/></g></svg>